<svg width="132" height="103" viewBox="0 0 132 103" fill="none" xmlns="http://www.w3.org/2000/svg">
<path d="M32.2383 18.5356C32.2383 18.1 32.5914 17.7469 33.0269 17.7469H59.8399V30.3648H33.0269C32.5914 30.3648 32.2383 30.0117 32.2383 29.5762V18.5356Z" fill="#DB554C"/>
<path d="M71.6692 17.7469H98.4822C98.9177 17.7469 99.2708 18.1 99.2708 18.5356V29.5762C99.2708 30.0117 98.9177 30.3648 98.4822 30.3648H71.6692V17.7469Z" fill="#DB554C"/>
<path d="M61.8115 17.5498H69.6977V63.6839H61.8115V17.5498Z" fill="#F5C65D"/>
<path d="M33.8156 32.9279C33.8156 32.4924 34.1686 32.1393 34.6042 32.1393H59.8399V63.6839H34.6042C34.1686 63.6839 33.8156 63.3309 33.8156 62.8953V32.9279Z" fill="#DB554C"/>
<path d="M71.6692 32.1393H96.9049C97.3405 32.1393 97.6935 32.4924 97.6935 32.9279V62.8953C97.6935 63.3309 97.3405 63.6839 96.9049 63.6839H71.6692V32.1393Z" fill="#DB554C"/>
<path d="M70.5106 14.9278C68.7148 15.4806 67.237 13.4465 68.3177 11.9095L75.5518 1.62112C76.3296 0.51495 77.9648 0.502285 78.7596 1.59628L83.5458 8.18386C84.3406 9.27785 83.8233 10.8291 82.5309 11.227L70.5106 14.9278Z" fill="#F5C65D"/>
<path d="M62.7052 11.8076C63.8649 13.286 62.4955 15.3946 60.6733 14.9365L48.4757 11.8699C47.1643 11.5402 46.5665 10.0182 47.303 8.88407L51.7378 2.05502C52.4743 0.92093 54.1079 0.847998 54.9425 1.91195L62.7052 11.8076Z" fill="#F5C65D"/>
<path d="M3.63226 97.2747V96.0327C3.96826 96.0327 4.23826 95.9367 4.44226 95.7447C4.64626 95.5527 4.81426 95.3007 4.94626 94.9887C5.09026 94.6767 5.22826 94.3407 5.36026 93.9807L8.87026 84.3507H10.1303L13.9643 94.1607C14.0363 94.3407 14.1323 94.6167 14.2523 94.9887C14.3723 95.3487 14.4443 95.6667 14.4683 95.9427C14.6723 95.9187 14.8643 95.9067 15.0443 95.9067C15.2363 95.8947 15.3923 95.8887 15.5123 95.8887V97.2747H10.6703V96.0867C11.1623 96.0867 11.4383 95.9367 11.4983 95.6367C11.5583 95.3247 11.5043 94.9467 11.3363 94.5027L10.9763 93.5127L7.07026 93.5847L6.78226 94.4307C6.72226 94.5867 6.63226 94.8207 6.51226 95.1327C6.40426 95.4327 6.30226 95.6847 6.20626 95.8887C6.39826 95.8647 6.62626 95.8527 6.89026 95.8527C7.16626 95.8407 7.36426 95.8347 7.48426 95.8347V97.2747H3.63226ZM7.52026 92.2347H10.5263L9.69826 89.9847C9.54226 89.5527 9.40426 89.1207 9.28426 88.6887C9.16426 88.2447 9.07426 87.8547 9.01426 87.5187H8.99626C8.94826 87.7227 8.87626 88.0287 8.78026 88.4367C8.68426 88.8447 8.53426 89.3307 8.33026 89.8947L7.52026 92.2347ZM16.2298 97.2747V96.1047C16.7218 96.1047 17.0218 95.9607 17.1298 95.6727C17.2378 95.3727 17.2918 94.9827 17.2918 94.5027V91.4787C17.2918 91.2627 17.2978 91.0227 17.3098 90.7587C17.3218 90.4827 17.3398 90.2127 17.3638 89.9487C17.1718 89.9607 16.9438 89.9727 16.6798 89.9847C16.4278 89.9847 16.2358 89.9907 16.1038 90.0027V88.6347C16.9318 88.6347 17.5678 88.5747 18.0118 88.4547C18.4678 88.3347 18.7558 88.2147 18.8758 88.0947H19.7578C19.7818 88.2147 19.7938 88.3647 19.7938 88.5447C19.8058 88.7247 19.8178 88.8747 19.8298 88.9947C20.2378 88.6827 20.6758 88.4367 21.1438 88.2567C21.6238 88.0767 22.0738 87.9867 22.4938 87.9867C23.0458 87.9867 23.5018 88.0887 23.8618 88.2927C24.2218 88.4847 24.5098 88.7787 24.7258 89.1747C25.1578 88.8147 25.6318 88.5267 26.1478 88.3107C26.6758 88.0947 27.1798 87.9867 27.6598 87.9867C28.6318 87.9867 29.3638 88.2687 29.8558 88.8327C30.3598 89.3847 30.6118 90.3507 30.6118 91.7307V94.3767C30.6118 94.5447 30.6058 94.7847 30.5938 95.0967C30.5818 95.3967 30.5638 95.6847 30.5398 95.9607C30.7318 95.9367 30.9418 95.9247 31.1698 95.9247C31.4098 95.9127 31.5898 95.9067 31.7098 95.9067V97.2747H27.1558V96.1047C27.5758 96.1047 27.8278 95.9607 27.9118 95.6727C28.0078 95.3727 28.0558 94.9827 28.0558 94.5027V91.7487C28.0438 90.9687 27.9118 90.4287 27.6598 90.1287C27.4198 89.8287 27.0958 89.6727 26.6878 89.6607C26.3758 89.6487 26.0818 89.7027 25.8058 89.8227C25.5418 89.9427 25.3018 90.0867 25.0858 90.2547C25.1938 90.7347 25.2478 91.3047 25.2478 91.9647V94.3767C25.2478 94.5447 25.2418 94.7847 25.2298 95.0967C25.2178 95.3967 25.1998 95.6847 25.1758 95.9607C25.3678 95.9367 25.5778 95.9247 25.8058 95.9247C26.0338 95.9127 26.2138 95.9067 26.3458 95.9067V97.2747H21.7018V96.1047C22.1578 96.1047 22.4338 95.9607 22.5298 95.6727C22.6378 95.3727 22.6918 94.9827 22.6918 94.5027L22.6738 91.6947C22.6738 90.9147 22.5598 90.3807 22.3318 90.0927C22.1038 89.8047 21.7858 89.6547 21.3778 89.6427C21.0778 89.6427 20.7958 89.7087 20.5318 89.8407C20.2798 89.9727 20.0518 90.1287 19.8478 90.3087V94.3767C19.8478 94.5447 19.8418 94.7847 19.8298 95.0967C19.8178 95.3967 19.7998 95.6847 19.7758 95.9607C19.9678 95.9367 20.1658 95.9247 20.3698 95.9247C20.5738 95.9127 20.7358 95.9067 20.8558 95.9067V97.2747H16.2298ZM32.7845 96.1047C33.2765 96.1047 33.5765 95.9607 33.6845 95.6727C33.7925 95.3727 33.8465 94.9827 33.8465 94.5027V91.5147C33.8465 91.2987 33.8525 91.0527 33.8645 90.7767C33.8765 90.4887 33.8945 90.2127 33.9185 89.9487C33.7265 89.9607 33.4985 89.9727 33.2345 89.9847C32.9825 89.9847 32.7905 89.9907 32.6585 90.0027V88.6347C33.4865 88.6347 34.1225 88.5747 34.5665 88.4547C35.0225 88.3347 35.3105 88.2147 35.4305 88.0947H36.4025V94.3767C36.4025 94.5447 36.3965 94.7847 36.3845 95.0967C36.3725 95.3967 36.3545 95.6847 36.3305 95.9607C36.5225 95.9367 36.7325 95.9247 36.9605 95.9247C37.2005 95.9127 37.3805 95.9067 37.5005 95.9067V97.2747H32.7845V96.1047ZM35.0345 86.6727C34.6265 86.6727 34.2905 86.5287 34.0265 86.2407C33.7625 85.9527 33.6305 85.6047 33.6305 85.1967C33.6305 84.7887 33.7685 84.4407 34.0445 84.1527C34.3205 83.8647 34.6445 83.7207 35.0165 83.7207C35.4005 83.7207 35.7185 83.8647 35.9705 84.1527C36.2345 84.4407 36.3665 84.7887 36.3665 85.1967C36.3665 85.6047 36.2465 85.9527 36.0065 86.2407C35.7665 86.5287 35.4425 86.6727 35.0345 86.6727ZM42.5392 102.153C41.5072 102.153 40.6912 102.039 40.0912 101.811C39.4912 101.595 39.0652 101.307 38.8132 100.947C38.5612 100.587 38.4352 100.203 38.4352 99.7947C38.4352 99.4227 38.5552 99.0447 38.7952 98.6607C39.0472 98.2767 39.4972 97.9647 40.1452 97.7247C39.6532 97.5927 39.3052 97.3827 39.1012 97.0947C38.9092 96.7947 38.8132 96.4767 38.8132 96.1407C38.8132 95.8287 38.9392 95.4807 39.1912 95.0967C39.4432 94.7007 39.8992 94.4007 40.5592 94.1967C40.0552 93.9927 39.6412 93.6747 39.3172 93.2427C38.9932 92.8107 38.8192 92.2887 38.7952 91.6767C38.7712 90.9567 38.9512 90.3207 39.3352 89.7687C39.7192 89.2047 40.2232 88.7667 40.8472 88.4547C41.4712 88.1427 42.1252 87.9867 42.8092 87.9867C43.1212 87.9867 43.4812 88.0287 43.8892 88.1127C44.2972 88.1967 44.6512 88.3407 44.9512 88.5447C45.0832 88.1727 45.2512 87.8247 45.4552 87.5007C45.6712 87.1647 45.9292 86.8947 46.2292 86.6907C46.5292 86.4747 46.8652 86.3667 47.2372 86.3667C47.6452 86.3667 47.9512 86.4747 48.1552 86.6907C48.3712 86.8947 48.4792 87.1707 48.4792 87.5187C48.4792 87.6627 48.4432 87.8247 48.3712 88.0047C48.3112 88.1727 48.1972 88.3167 48.0292 88.4367C47.8732 88.5567 47.6512 88.6167 47.3632 88.6167C47.1832 88.6167 47.0032 88.5507 46.8232 88.4187C46.6432 88.2747 46.5352 88.1067 46.4992 87.9147C46.3432 87.9627 46.1872 88.1187 46.0312 88.3827C45.8752 88.6467 45.7852 88.8807 45.7612 89.0847C46.4692 89.6967 46.8232 90.4707 46.8232 91.4067C46.8232 92.1027 46.6252 92.7207 46.2292 93.2607C45.8452 93.7887 45.3412 94.2087 44.7172 94.5207C44.1052 94.8207 43.4452 94.9707 42.7372 94.9707C42.5812 94.9707 42.4072 94.9647 42.2152 94.9527C42.0232 94.9287 41.8372 94.9167 41.6572 94.9167C41.3932 94.9167 41.1712 94.9647 40.9912 95.0607C40.8112 95.1567 40.7212 95.2887 40.7212 95.4567C40.7212 95.6847 40.8952 95.8407 41.2432 95.9247C41.5912 96.0087 42.1852 96.0747 43.0252 96.1227C43.9492 96.1707 44.7532 96.2907 45.4372 96.4827C46.1332 96.6627 46.6732 96.9507 47.0572 97.3467C47.4412 97.7427 47.6332 98.2887 47.6332 98.9847C47.6332 99.5007 47.4832 99.9507 47.1832 100.335C46.8832 100.731 46.4812 101.061 45.9772 101.325C45.4852 101.601 44.9392 101.805 44.3392 101.937C43.7392 102.081 43.1392 102.153 42.5392 102.153ZM42.8092 93.7647C43.1332 93.7647 43.4032 93.6627 43.6192 93.4587C43.8472 93.2547 44.0152 92.9967 44.1232 92.6847C44.2432 92.3727 44.3032 92.0547 44.3032 91.7307C44.3032 91.3107 44.2492 90.9087 44.1412 90.5247C44.0332 90.1287 43.8652 89.8107 43.6372 89.5707C43.4212 89.3187 43.1392 89.1927 42.7912 89.1927C42.3112 89.1927 41.9392 89.4087 41.6752 89.8407C41.4112 90.2727 41.2792 90.7647 41.2792 91.3167C41.2792 91.7367 41.3392 92.1387 41.4592 92.5227C41.5792 92.8947 41.7532 93.1947 41.9812 93.4227C42.2092 93.6507 42.4852 93.7647 42.8092 93.7647ZM43.0612 100.911C43.9132 100.911 44.5552 100.755 44.9872 100.443C45.4312 100.131 45.6532 99.8067 45.6532 99.4707C45.6532 98.7507 44.7892 98.3547 43.0612 98.2827C42.7972 98.2587 42.4912 98.2407 42.1432 98.2287C41.7952 98.2167 41.4892 98.1867 41.2252 98.1387C41.0452 98.2827 40.9072 98.4627 40.8112 98.6787C40.7152 98.8947 40.6612 99.1047 40.6492 99.3087C40.6252 99.7887 40.8292 100.173 41.2612 100.461C41.7052 100.761 42.3052 100.911 43.0612 100.911ZM52.9717 97.5627C52.1077 97.5627 51.3277 97.3767 50.6317 97.0047C49.9357 96.6327 49.3837 96.1047 48.9757 95.4207C48.5797 94.7247 48.3817 93.9087 48.3817 92.9727C48.3817 91.9767 48.5857 91.1067 48.9937 90.3627C49.4137 89.6067 49.9657 89.0247 50.6497 88.6167C51.3457 88.1967 52.1017 87.9867 52.9177 87.9867C53.7817 87.9867 54.5557 88.1727 55.2397 88.5447C55.9237 88.9167 56.4637 89.4507 56.8597 90.1467C57.2557 90.8307 57.4537 91.6527 57.4537 92.6127C57.4537 93.6207 57.2617 94.4967 56.8777 95.2407C56.4937 95.9847 55.9657 96.5607 55.2937 96.9687C54.6217 97.3647 53.8477 97.5627 52.9717 97.5627ZM53.0437 96.2847C53.5237 96.2727 53.8837 96.1047 54.1237 95.7807C54.3757 95.4567 54.5497 95.0487 54.6457 94.5567C54.7417 94.0647 54.7897 93.5667 54.7897 93.0627C54.7897 92.6187 54.7537 92.1687 54.6817 91.7127C54.6217 91.2567 54.5197 90.8427 54.3757 90.4707C54.2317 90.0987 54.0337 89.7987 53.7817 89.5707C53.5417 89.3427 53.2417 89.2347 52.8817 89.2467C52.4137 89.2587 52.0417 89.4267 51.7657 89.7507C51.5017 90.0747 51.3097 90.4827 51.1897 90.9747C51.0817 91.4547 51.0277 91.9587 51.0277 92.4867C51.0277 93.0987 51.0937 93.6987 51.2257 94.2867C51.3577 94.8747 51.5677 95.3607 51.8557 95.7447C52.1557 96.1167 52.5517 96.2967 53.0437 96.2847ZM70.9116 88.7067C70.7556 87.7107 70.4076 86.9547 69.8676 86.4387C69.3276 85.9227 68.6376 85.6707 67.7976 85.6827C67.2816 85.6827 66.8256 85.8267 66.4296 86.1147C66.0456 86.4027 65.8536 86.7747 65.8536 87.2307C65.8536 87.7827 66.0936 88.2387 66.5736 88.5987C67.0536 88.9587 67.7856 89.3427 68.7696 89.7507C69.2256 89.9307 69.6936 90.1407 70.1736 90.3807C70.6536 90.6207 71.0976 90.9087 71.5056 91.2447C71.9136 91.5687 72.2436 91.9527 72.4956 92.3967C72.7476 92.8287 72.8736 93.3387 72.8736 93.9267C72.8736 94.6347 72.6816 95.2647 72.2976 95.8167C71.9136 96.3687 71.3736 96.8007 70.6776 97.1127C69.9936 97.4127 69.1896 97.5627 68.2656 97.5627C67.7856 97.5627 67.2636 97.4847 66.6996 97.3287C66.1476 97.1847 65.6256 96.9687 65.1336 96.6807L65.1876 97.4367H63.8016V93.2247H64.9896C65.1576 94.2327 65.5416 94.9947 66.1416 95.5107C66.7536 96.0147 67.4796 96.2667 68.3196 96.2667C68.9556 96.2667 69.4716 96.0987 69.8676 95.7627C70.2756 95.4267 70.4796 95.0307 70.4796 94.5747C70.4796 94.1547 70.3296 93.8067 70.0296 93.5307C69.7416 93.2547 69.3756 93.0207 68.9316 92.8287C68.4996 92.6367 68.0556 92.4507 67.5996 92.2707C66.8316 91.9587 66.1356 91.6107 65.5116 91.2267C64.8996 90.8307 64.4136 90.3627 64.0536 89.8227C63.6936 89.2707 63.5136 88.6047 63.5136 87.8247C63.5136 87.4527 63.5856 87.0687 63.7296 86.6727C63.8736 86.2647 64.1076 85.8927 64.4316 85.5567C64.7556 85.2087 65.1876 84.9267 65.7276 84.7107C66.2676 84.4947 66.9336 84.3867 67.7256 84.3867C68.2056 84.3867 68.7276 84.4587 69.2916 84.6027C69.8676 84.7467 70.3596 84.9627 70.7676 85.2507L70.6956 84.5127H72.0996V88.7067H70.9116ZM78.4975 97.5627C77.6215 97.5627 76.8475 97.3707 76.1755 96.9867C75.5035 96.5907 74.9815 96.0387 74.6095 95.3307C74.2375 94.6107 74.0515 93.7647 74.0515 92.7927C74.0515 91.9527 74.2375 91.1667 74.6095 90.4347C74.9815 89.7027 75.5035 89.1147 76.1755 88.6707C76.8595 88.2147 77.6515 87.9867 78.5515 87.9867C79.0555 87.9867 79.5475 88.0587 80.0275 88.2027C80.5075 88.3347 80.9395 88.5687 81.3235 88.9047C81.7195 89.2407 82.0315 89.6967 82.2595 90.2727C82.4995 90.8487 82.6135 91.5687 82.6015 92.4327L76.6975 92.5407C76.6975 93.1887 76.7755 93.7707 76.9315 94.2867C77.0995 94.8027 77.3695 95.2107 77.7415 95.5107C78.1135 95.8107 78.6115 95.9607 79.2355 95.9607C79.5955 95.9607 80.0215 95.8647 80.5135 95.6727C81.0175 95.4687 81.4735 95.1147 81.8815 94.6107L82.6915 95.3667C82.2595 95.9787 81.7975 96.4467 81.3055 96.7707C80.8135 97.0827 80.3215 97.2927 79.8295 97.4007C79.3495 97.5087 78.9055 97.5627 78.4975 97.5627ZM76.8055 91.2807H80.1175C80.1055 90.5367 79.9615 90.0147 79.6855 89.7147C79.4095 89.4027 79.0615 89.2467 78.6415 89.2467C78.1135 89.2467 77.6995 89.4387 77.3995 89.8227C77.0995 90.1947 76.9015 90.6807 76.8055 91.2807ZM88.1611 97.5627C87.3571 97.5627 86.6191 97.3827 85.9471 97.0227C85.2751 96.6627 84.7351 96.1407 84.3271 95.4567C83.9311 94.7727 83.7331 93.9447 83.7331 92.9727C83.7331 92.0607 83.9311 91.2327 84.3271 90.4887C84.7231 89.7327 85.2691 89.1267 85.9651 88.6707C86.6731 88.2147 87.4891 87.9867 88.4131 87.9867C89.1811 87.9867 89.8171 88.1067 90.3211 88.3467C90.8371 88.5747 91.2211 88.8807 91.4731 89.2647C91.7371 89.6367 91.8691 90.0327 91.8691 90.4527C91.8691 90.8007 91.7611 91.1127 91.5451 91.3887C91.3411 91.6527 91.0471 91.7907 90.6631 91.8027C90.2071 91.8147 89.8891 91.6887 89.7091 91.4247C89.5291 91.1487 89.4391 90.8847 89.4391 90.6327C89.4391 90.5247 89.4571 90.3987 89.4931 90.2547C89.5291 90.0987 89.5831 89.9607 89.6551 89.8407C89.5231 89.5767 89.3131 89.4087 89.0251 89.3367C88.7371 89.2647 88.5091 89.2347 88.3411 89.2467C87.7651 89.2827 87.2911 89.5707 86.9191 90.1107C86.5471 90.6507 86.3611 91.4307 86.3611 92.4507C86.3611 93.0507 86.4331 93.6147 86.5771 94.1427C86.7331 94.6587 86.9851 95.0847 87.3331 95.4207C87.6811 95.7567 88.1491 95.9367 88.7371 95.9607C89.2411 95.9727 89.7331 95.8527 90.2131 95.6007C90.6931 95.3487 91.1011 95.0067 91.4371 94.5747L92.2651 95.3847C91.8331 95.9847 91.3831 96.4407 90.9151 96.7527C90.4471 97.0647 89.9791 97.2747 89.5111 97.3827C89.0551 97.5027 88.6051 97.5627 88.1611 97.5627ZM93.2255 96.1047C93.7175 96.1047 94.0175 95.9607 94.1255 95.6727C94.2335 95.3727 94.2875 94.9827 94.2875 94.5027V91.4787C94.2875 91.2627 94.2935 91.0227 94.3055 90.7587C94.3175 90.4827 94.3355 90.2127 94.3595 89.9487C94.1675 89.9607 93.9395 89.9727 93.6755 89.9847C93.4235 89.9847 93.2315 89.9907 93.0995 90.0027V88.6347H93.8195C94.2875 88.6347 94.7135 88.5747 95.0975 88.4547C95.4935 88.3347 95.7515 88.2147 95.8715 88.0947H96.7535C96.7775 88.2147 96.7955 88.4427 96.8075 88.7787C96.8195 89.1027 96.8255 89.3907 96.8255 89.6427C97.3055 89.0427 97.7555 88.6167 98.1755 88.3647C98.5955 88.1127 99.0215 87.9867 99.4535 87.9867C99.8735 87.9867 100.24 88.1067 100.552 88.3467C100.864 88.5747 101.02 88.9527 101.02 89.4807C101.02 89.6607 100.978 89.8527 100.894 90.0567C100.81 90.2487 100.678 90.4107 100.498 90.5427C100.318 90.6747 100.072 90.7407 99.7595 90.7407C99.5195 90.7407 99.2735 90.6687 99.0215 90.5247C98.7695 90.3807 98.6255 90.1047 98.5895 89.6967C98.3495 89.6967 98.1095 89.7987 97.8695 90.0027C97.6295 90.1947 97.4135 90.4287 97.2215 90.7047C97.0415 90.9687 96.9155 91.2147 96.8435 91.4427V94.3767C96.8435 94.5447 96.8375 94.7847 96.8255 95.0967C96.8135 95.3967 96.7955 95.6847 96.7715 95.9607C96.9635 95.9367 97.1735 95.9247 97.4015 95.9247C97.6415 95.9127 97.8215 95.9067 97.9415 95.9067V97.2747H93.2255V96.1047ZM105.995 97.5627C105.119 97.5627 104.345 97.3707 103.673 96.9867C103.001 96.5907 102.479 96.0387 102.107 95.3307C101.735 94.6107 101.549 93.7647 101.549 92.7927C101.549 91.9527 101.735 91.1667 102.107 90.4347C102.479 89.7027 103.001 89.1147 103.673 88.6707C104.357 88.2147 105.149 87.9867 106.049 87.9867C106.553 87.9867 107.045 88.0587 107.525 88.2027C108.005 88.3347 108.437 88.5687 108.821 88.9047C109.217 89.2407 109.529 89.6967 109.757 90.2727C109.997 90.8487 110.111 91.5687 110.099 92.4327L104.195 92.5407C104.195 93.1887 104.273 93.7707 104.429 94.2867C104.597 94.8027 104.867 95.2107 105.239 95.5107C105.611 95.8107 106.109 95.9607 106.733 95.9607C107.093 95.9607 107.519 95.8647 108.011 95.6727C108.515 95.4687 108.971 95.1147 109.379 94.6107L110.189 95.3667C109.757 95.9787 109.295 96.4467 108.803 96.7707C108.311 97.0827 107.819 97.2927 107.327 97.4007C106.847 97.5087 106.403 97.5627 105.995 97.5627ZM104.303 91.2807H107.615C107.603 90.5367 107.459 90.0147 107.183 89.7147C106.907 89.4027 106.559 89.2467 106.139 89.2467C105.611 89.2467 105.197 89.4387 104.897 89.8227C104.597 90.1947 104.399 90.6807 104.303 91.2807ZM114.975 97.5627C114.615 97.5627 114.267 97.5207 113.931 97.4367C113.607 97.3527 113.307 97.1967 113.031 96.9687C112.767 96.7287 112.557 96.3807 112.401 95.9247C112.245 95.4687 112.167 94.8627 112.167 94.1067L112.203 89.7687H110.979V88.2747C111.351 88.2627 111.711 88.1367 112.059 87.8967C112.407 87.6567 112.701 87.3447 112.941 86.9607C113.193 86.5767 113.361 86.1747 113.445 85.7547H114.777L114.759 88.2747H117.045V89.6607L114.759 89.7147L114.741 94.1427C114.741 94.4187 114.765 94.6947 114.813 94.9707C114.873 95.2347 114.981 95.4567 115.137 95.6367C115.293 95.8047 115.521 95.8887 115.821 95.8887C115.989 95.8887 116.217 95.8287 116.505 95.7087C116.805 95.5887 117.123 95.2887 117.459 94.8087L118.323 95.6187C117.999 96.0987 117.663 96.4707 117.315 96.7347C116.967 96.9987 116.631 97.1907 116.307 97.3107C115.995 97.4307 115.719 97.5027 115.479 97.5267C115.239 97.5507 115.071 97.5627 114.975 97.5627ZM123.253 97.5627C122.389 97.5627 121.609 97.3767 120.913 97.0047C120.217 96.6327 119.665 96.1047 119.257 95.4207C118.861 94.7247 118.663 93.9087 118.663 92.9727C118.663 91.9767 118.867 91.1067 119.275 90.3627C119.695 89.6067 120.247 89.0247 120.931 88.6167C121.627 88.1967 122.383 87.9867 123.199 87.9867C124.063 87.9867 124.837 88.1727 125.521 88.5447C126.205 88.9167 126.745 89.4507 127.141 90.1467C127.537 90.8307 127.735 91.6527 127.735 92.6127C127.735 93.6207 127.543 94.4967 127.159 95.2407C126.775 95.9847 126.247 96.5607 125.575 96.9687C124.903 97.3647 124.129 97.5627 123.253 97.5627ZM123.325 96.2847C123.805 96.2727 124.165 96.1047 124.405 95.7807C124.657 95.4567 124.831 95.0487 124.927 94.5567C125.023 94.0647 125.071 93.5667 125.071 93.0627C125.071 92.6187 125.035 92.1687 124.963 91.7127C124.903 91.2567 124.801 90.8427 124.657 90.4707C124.513 90.0987 124.315 89.7987 124.063 89.5707C123.823 89.3427 123.523 89.2347 123.163 89.2467C122.695 89.2587 122.323 89.4267 122.047 89.7507C121.783 90.0747 121.591 90.4827 121.471 90.9747C121.363 91.4547 121.309 91.9587 121.309 92.4867C121.309 93.0987 121.375 93.6987 121.507 94.2867C121.639 94.8747 121.849 95.3607 122.137 95.7447C122.437 96.1167 122.833 96.2967 123.325 96.2847Z" fill="#DB554C"/>
</svg>
